HIERARCHY
ROOT Hips
{
  OFFSET 31.5428 102.736 257.603
  CHANNELS 6 Xposition Yposition Zposition Zrotation Xrotation Yrotation
  JOINT RightUpLeg
  {
    OFFSET -8.9458 -8.66707 0.101652
    CHANNELS 3 Zrotation Xrotation Yrotation
    JOINT RightLeg
    {
      OFFSET 0 -44.4227 1.3727
      CHANNELS 3 Zrotation Xrotation Yrotation
      JOINT RightFoot
      {
        OFFSET 0.253549 -42.0924 -1.46059
        CHANNELS 3 Zrotation Xrotation Yrotation
        JOINT RightToes
        {
          OFFSET 0.04 -4.41509 8.4991
          CHANNELS 3 Zrotation Xrotation Yrotation
          End Site
          {
            OFFSET -0.08 -0.137448 9.77979
          }
        }
      }
    }
  }
  JOINT Spine
  {
    OFFSET 0 11.8905 0
    CHANNELS 3 Zrotation Xrotation Yrotation
    JOINT Spine1
    {
      OFFSET 0 25.6574 0.127663
      CHANNELS 3 Zrotation Xrotation Yrotation
      JOINT HEad
      {
        OFFSET 0 8.73416 0.011341
        CHANNELS 3 Zrotation Xrotation Yrotation
        End Site
        {
          OFFSET -0.29 12.7742 2.51395
        }
      }
      JOINT LeftShoulder1
      {
        OFFSET 8.99 -0.362252 -0.22
        CHANNELS 3 Zrotation Xrotation Yrotation
        JOINT LeftArm
        {
          OFFSET 10.2827 -0.00338 0.322123
          CHANNELS 3 Zrotation Xrotation Yrotation
          JOINT LeftForeArm
          {
            OFFSET 32.7669 0.099144 -1.42434
            CHANNELS 3 Zrotation Xrotation Yrotation
            JOINT LeftHand
            {
              OFFSET 27.5643 0.085362 1.02216
              CHANNELS 3 Zrotation Xrotation Yrotation
              End Site
              {
                OFFSET 16.7443 -0.6 1.50291
              }
            }
          }
        }
      }
      JOINT RightShoulder
      {
        OFFSET -8.99 -0.362252 -0.22
        CHANNELS 3 Zrotation Xrotation Yrotation
        JOINT RightArm
        {
          OFFSET -10.2827 -0.00338 0.322123
          CHANNELS 3 Zrotation Xrotation Yrotation
          JOINT RightForeArm
          {
            OFFSET -32.8971 0.099144 -1.42434
            CHANNELS 3 Zrotation Xrotation Yrotation
            JOINT RightHand
            {
              OFFSET -27.4921 0.085362 1.02216
              CHANNELS 3 Zrotation Xrotation Yrotation
              End Site
              {
                OFFSET -16.6312 -0.6 1.50291
              }
            }
          }
        }
      }
    }
  }
  JOINT LeftUpLeg
  {
    OFFSET 8.9458 -8.66707 0.101652
    CHANNELS 3 Zrotation Xrotation Yrotation
    JOINT LeftLeg
    {
      OFFSET 0 -44.4227 1.3727
      CHANNELS 3 Zrotation Xrotation Yrotation
      JOINT LeftFoot
      {
        OFFSET -0.253549 -42.0924 -1.46059
        CHANNELS 3 Zrotation Xrotation Yrotation
        JOINT LeftToes
        {
          OFFSET -0.04 -4.41509 8.4991
          CHANNELS 3 Zrotation Xrotation Yrotation
          End Site
          {
            OFFSET 0.08 -0.047448 9.77979
          }
        }
      }
    }
  }
}
MOTION
Frames:	10
Frame Time:	0.0166667
19.3215 101.278 91.0478 0.432456 6.3142 -179.826 3.19397 -16.2419 9.63256 -1.01693 4.07649 -31.1228 14.1588 5.92481 -1.22459 -2.30929 31.4344 2.24298 -3.54657 3.63408 0.574956 4.15582 11.3551 -0.889314 -4.53938 0.510718 -0.214899 -1.2424e-017 0 4.96962e-017 -98.696 -31.5936 -25.5639 -8.03056 13.4395 -8.12033 0.368473 9.90896 -0.00117926 -1.96352 0.362208 1.87782 91.6267 -46.5175 11.6033 4.61686 13.1469 9.96221 -0.369625 9.91382 0.00119887 -2.6788 6.97705 -0.51247 -6.53772 31.1741 18.3528 -1.18121 -24.7222 -0.142255 0.188932 -26.1363 -1.49984 
19.513 101.249 89.1865 0.682189 6.41961 -179.805 3.36363 -16.0001 8.76108 -0.44216 5.37757 -30.9956 13.4369 7.21948 -1.30313 -3.26503 28.641 3.2575 -3.5796 3.62202 0.699708 4.72158 11.3529 -0.980629 -4.727 0.379498 -0.264784 -3.72721e-017 -1.59028e-015 4.96962e-017 -98.8037 -31.8155 -25.2109 -7.78839 13.4019 -7.77869 0.368473 9.90896 -0.00117926 -1.97896 0.352497 1.74503 91.4389 -46.7732 11.5359 4.45936 13.1228 9.76822 -0.369625 9.91382 0.00119887 -2.21965 7.85074 -0.273593 -6.54322 31.9318 18.4408 -1.2406 -24.3684 -0.14907 -0.264561 -25.6982 -2.23303 
19.7461 101.308 87.315 0.870678 6.59362 -179.61 3.54014 -15.8726 7.77862 0.130348 6.98904 -31.0833 11.9876 8.41232 -1.29227 -4.76284 29.4111 4.74072 -3.48278 3.64082 0.804856 5.12292 11.4765 -1.05167 -4.99392 0.396974 -0.521443 -6.0179e-017 -3.18055e-015 3.10601e-018 -98.6891 -31.8475 -24.8485 -7.58876 13.3588 -7.30014 0.368473 9.90896 -0.00117926 -1.96239 0.335957 1.4897 91.1619 -47.0205 11.2349 4.40406 13.1143 9.70318 -0.369625 9.91382 0.00119887 -1.72634 8.68231 -0.206657 -6.49177 32.789 18.1667 -1.31929 -23.5243 -0.156096 -0.434408 -25.2646 -2.50562 
20.0019 101.43 85.4247 1.09025 6.8202 -179.396 3.81768 -15.6002 7.27123 0.667454 8.48906 -31.3653 10.5846 9.56643 -1.27179 -6.19729 30.3929 6.10299 -3.32984 3.67453 0.905712 5.52875 11.653 -1.12652 -5.2293 0.437424 -0.800958 1.2424e-016 0 -9.93923e-017 -98.5388 -31.9339 -24.4492 -7.35532 13.3119 -6.76269 0.368473 9.90896 -0.00117926 -1.96428 0.317614 1.21721 90.8569 -47.252 10.8509 4.38999 13.1121 9.6802 -0.369625 9.91382 0.00119887 -1.17686 9.41714 -0.226913 -6.34576 33.8435 17.7178 -1.44104 -22.4156 -0.166404 -0.658971 -24.3997 -2.84183 
20.2676 101.612 83.5238 1.43228 7.11262 -179.265 4.28325 -14.8944 8.10143 1.05869 9.28206 -31.8725 10.0736 10.8894 -1.33373 -6.46236 28.5137 6.38781 -3.15654 3.71447 1.00865 6.08502 11.8628 -1.23019 -5.29747 0.356764 -0.959462 -2.85753e-016 -1.59028e-015 -9.93923e-017 -98.5417 -32.2635 -24.0614 -6.99516 13.26 -6.18545 0.368473 9.90896 -0.00117926 -2.05377 0.301323 1.02645 90.6153 -47.4654 10.5019 4.36371 13.1091 9.64253 -0.369625 9.91382 0.00119887 -0.543907 10.0287 -0.318022 -5.99126 35.1599 17.1593 -1.7022 -21.2057 -0.194567 -1.21129 -22.8202 -3.72381 
20.5406 101.824 81.5982 1.82632 7.38337 -179.272 4.86457 -14.0648 9.56634 1.46446 9.95753 -32.6111 9.77638 11.6693 -1.36433 -6.30425 26.2765 6.2767 -2.99818 3.7532 1.11203 6.68833 11.9778 -1.33361 -5.36326 0.354134 -0.985365 -3.72721e-017 0 -0 -98.5121 -32.8703 -23.4909 -6.63731 13.2124 -5.66822 0.368473 9.90896 -0.00117926 -2.17639 0.288652 0.909064 90.3816 -47.6569 10.1964 4.32737 13.1036 9.55203 -0.369625 9.91382 0.00119887 0.113302 10.4013 -0.421293 -5.6389 36.7785 16.5953 -1.91328 -19.8008 -0.21046 -1.77675 -20.5307 -4.65719 
20.8127 102.036 79.6159 2.25537 7.52981 -179.565 5.62362 -13.3721 11.6085 2.1296 11.0159 -33.9566 9.14898 10.9519 -1.23814 -6.03999 25.5915 6.03451 -2.9084 3.77845 1.21906 7.30952 11.8049 -1.41494 -5.59478 0.635995 -0.784537 -3.29237e-016 -3.18055e-015 -0 -98.2615 -33.9324 -22.4517 -6.42513 13.1831 -5.35388 0.368473 9.90896 -0.00117926 -2.31463 0.284798 0.933912 90.1016 -47.8362 9.96638 4.25967 13.0896 9.32821 -0.369625 9.91382 0.00119887 0.740648 10.4608 -0.489367 -5.50187 38.7108 16.2049 -1.83052 -18.2354 -0.178323 -2.15433 -17.5745 -5.29099 
21.0882 102.248 77.6389 2.65585 7.60992 -179.975 6.3481 -12.666 13.178 2.76331 12.0829 -34.9181 8.62528 9.67262 -1.07932 -5.92708 25.1232 5.92743 -2.86755 3.79602 1.32151 7.86725 11.5202 -1.47651 -5.85061 1.03633 -0.460735 5.5947e-016 3.18055e-015 -1.55301e-017 -97.9023 -35.2047 -21.2299 -6.22596 13.1607 -5.1317 0.368473 9.90896 -0.00117926 -2.42664 0.282723 0.96835 89.8674 -47.9633 9.86295 4.17707 13.0724 9.04152 -0.369625 9.91382 0.00119887 1.33692 10.056 -0.469608 -5.51837 41.11 15.8779 -1.72552 -16.2895 -0.133924 -2.43959 -13.5751 -5.77605 
21.3802 102.457 75.703 2.9064 7.66437 179.593 6.86086 -11.8687 12.7708 2.94241 13.058 -34.2225 8.53962 8.49361 -0.983335 -6.61299 23.9345 6.60837 -2.93477 3.79646 1.41872 8.21987 11.2332 -1.50686 -6.02166 1.53149 -0.0422738 -7.14382e-016 0 -9.93923e-017 -97.5018 -36.5298 -20.0099 -5.94706 13.1376 -4.93967 0.368473 9.90896 -0.00117926 -2.43095 0.276796 0.878212 89.7828 -47.991 10.0123 4.0648 13.0524 8.67779 -0.369625 9.91382 0.00119887 1.866 8.99558 -0.295524 -5.79872 44.2067 15.5858 -1.86364 -13.6736 -0.107616 -2.59928 -7.54729 -6.05762 
21.655 102.648 73.8548 3.15583 7.64326 179.218 7.3301 -11.0627 11.745 2.97113 13.8671 -32.9916 8.62054 7.28094 -0.904801 -7.15115 22.7474 7.16582 -2.9273 3.81327 1.49124 8.52325 10.9508 -1.52629 -6.17457 1.90053 0.338892 2.48481e-017 -1.59028e-015 -9.93923e-017 -97.1174 -37.8198 -18.8554 -5.61009 13.1145 -4.77493 0.368473 9.90896 -0.00117926 -2.42906 0.267987 0.736912 89.7593 -47.95 10.2212 3.99573 13.0389 8.4104 -0.369625 9.91382 0.00119887 2.41048 7.32536 0.0329928 -5.98952 47.7883 15.2745 -2.01057 -10.6314 -0.0766848 -2.80654 -1.35789 -6.49464 
